<mxfile host="app.diagrams.net" modified="2023-03-14T13:01:20.557Z" agent="5.0 (Windows NT 10.0; Win64; x64) AppleWebKit/537.36 (KHTML, like Gecko) Chrome/111.0.0.0 Safari/537.36" etag="sl7JW26esFzTwGvfez6l" version="21.0.2" type="github">
  <diagram name="Page-1" id="03018318-947c-dd8e-b7a3-06fadd420f32">
    <mxGraphModel dx="2333" dy="2123" grid="1" gridSize="10" guides="1" tooltips="1" connect="1" arrows="1" fold="1" page="1" pageScale="1" pageWidth="1100" pageHeight="850" background="#ffffff" math="0" shadow="0">
      <root>
        <mxCell id="0" />
        <mxCell id="1" parent="0" />
        <mxCell id="677b7b8949515195-1" value="" style="whiteSpace=wrap;html=1;rounded=0;shadow=0;labelBackgroundColor=none;strokeColor=default;strokeWidth=1;fillColor=#595959;fontFamily=Verdana;fontSize=12;fontColor=#000000;align=center;comic=1;" parent="1" vertex="1">
          <mxGeometry x="30" y="-200" width="1040" height="350" as="geometry" />
        </mxCell>
        <mxCell id="677b7b8949515195-3" value="Search" style="strokeWidth=1;shadow=0;dashed=0;align=center;html=1;shape=mxgraph.mockup.forms.searchBox;strokeColor=#999999;mainText=;strokeColor2=#008cff;fontColor=#666666;fontSize=17;align=left;spacingLeft=3;rounded=0;labelBackgroundColor=none;comic=1;" parent="1" vertex="1">
          <mxGeometry x="683" y="-120" width="290" height="30" as="geometry" />
        </mxCell>
        <mxCell id="677b7b8949515195-4" value="Trang chủ" style="text;html=1;points=[];align=left;verticalAlign=top;spacingTop=-4;fontSize=14;fontFamily=Verdana" parent="1" vertex="1">
          <mxGeometry x="683" y="-160" width="60" height="20" as="geometry" />
        </mxCell>
        <mxCell id="677b7b8949515195-5" value="Hỗ trợ" style="text;html=1;points=[];align=left;verticalAlign=top;spacingTop=-4;fontSize=14;fontFamily=Verdana" parent="1" vertex="1">
          <mxGeometry x="800" y="-160" width="60" height="20" as="geometry" />
        </mxCell>
        <mxCell id="677b7b8949515195-6" value="Liên hệ" style="text;html=1;points=[];align=left;verticalAlign=top;spacingTop=-4;fontSize=14;fontFamily=Verdana" parent="1" vertex="1">
          <mxGeometry x="920" y="-160" width="60" height="20" as="geometry" />
        </mxCell>
        <mxCell id="677b7b8949515195-10" value="" style="whiteSpace=wrap;html=1;rounded=0;shadow=0;labelBackgroundColor=none;strokeWidth=1;fontFamily=Verdana;fontSize=12;align=center;comic=1;fillColor=#f5f5f5;fontColor=#333333;strokeColor=#666666;glass=0;" parent="1" vertex="1">
          <mxGeometry x="30" y="160" width="1040" height="50" as="geometry" />
        </mxCell>
        <mxCell id="677b7b8949515195-11" value="Quần áo&amp;nbsp;" style="text;html=1;points=[];align=left;verticalAlign=top;spacingTop=-4;fontSize=16;fontFamily=Verdana" parent="1" vertex="1">
          <mxGeometry x="80" y="175" width="120" height="20" as="geometry" />
        </mxCell>
        <mxCell id="677b7b8949515195-12" value="Giày dép" style="text;html=1;points=[];align=left;verticalAlign=top;spacingTop=-4;fontSize=16;fontFamily=Verdana" parent="1" vertex="1">
          <mxGeometry x="290" y="175" width="120" height="20" as="geometry" />
        </mxCell>
        <mxCell id="677b7b8949515195-13" value="Mỹ phẩm" style="text;html=1;points=[];align=left;verticalAlign=top;spacingTop=-4;fontSize=16;fontFamily=Verdana" parent="1" vertex="1">
          <mxGeometry x="480" y="175" width="120" height="20" as="geometry" />
        </mxCell>
        <mxCell id="677b7b8949515195-14" value="Thiết bị điện tử" style="text;html=1;points=[];align=left;verticalAlign=top;spacingTop=-4;fontSize=16;fontFamily=Verdana" parent="1" vertex="1">
          <mxGeometry x="640" y="175" width="120" height="20" as="geometry" />
        </mxCell>
        <mxCell id="fRcpiVobLPPdyw1uBc6f-1" value="" style="rounded=0;whiteSpace=wrap;html=1;fillColor=#858585;" vertex="1" parent="1">
          <mxGeometry x="40" y="860" width="1030" height="60" as="geometry" />
        </mxCell>
        <mxCell id="fRcpiVobLPPdyw1uBc6f-4" style="edgeStyle=orthogonalEdgeStyle;rounded=0;orthogonalLoop=1;jettySize=auto;html=1;exitX=0.5;exitY=1;exitDx=0;exitDy=0;" edge="1" parent="1">
          <mxGeometry relative="1" as="geometry">
            <mxPoint x="540.0000000000002" y="400" as="sourcePoint" />
            <mxPoint x="540.0000000000002" y="400" as="targetPoint" />
          </mxGeometry>
        </mxCell>
        <mxCell id="fRcpiVobLPPdyw1uBc6f-5" value="" style="rounded=0;whiteSpace=wrap;html=1;fillColor=#858585;rotation=90;" vertex="1" parent="1">
          <mxGeometry x="800" y="240" width="160" height="200" as="geometry" />
        </mxCell>
        <mxCell id="fRcpiVobLPPdyw1uBc6f-6" value="" style="rounded=0;whiteSpace=wrap;html=1;fillColor=#858585;" vertex="1" parent="1">
          <mxGeometry x="80" y="240" width="200" height="200" as="geometry" />
        </mxCell>
        <mxCell id="fRcpiVobLPPdyw1uBc6f-7" value="" style="rounded=0;whiteSpace=wrap;html=1;fillColor=#858585;" vertex="1" parent="1">
          <mxGeometry x="440" y="240" width="160" height="200" as="geometry" />
        </mxCell>
        <mxCell id="fRcpiVobLPPdyw1uBc6f-10" value="" style="rounded=0;whiteSpace=wrap;html=1;fillColor=#858585;" vertex="1" parent="1">
          <mxGeometry x="440" y="480" width="160" height="200" as="geometry" />
        </mxCell>
        <mxCell id="fRcpiVobLPPdyw1uBc6f-11" value="" style="rounded=0;whiteSpace=wrap;html=1;fillColor=#858585;rotation=90;" vertex="1" parent="1">
          <mxGeometry x="800" y="480" width="160" height="200" as="geometry" />
        </mxCell>
        <mxCell id="fRcpiVobLPPdyw1uBc6f-12" value="" style="shape=image;verticalLabelPosition=bottom;labelBackgroundColor=default;verticalAlign=top;aspect=fixed;imageAspect=0;image=data:image/jpeg,/9j/4QoPRXhpZgAASUkqAAgAAAAMAAABAwABAAAA0gIAAAEBAwABAAAA4AEAAAIBAwADAAAAngAAAAYBAwABAAAAAgAAABIBAwABAAAAAQAAABUBAwABAAAAAwAAABoBBQABAAAApAAAABsBBQABAAAArAAAACgBAwABAAAAAgAAADEBAgAiAAAAtAAAADIBAgAUAAAA1gAAAGmHBAABAAAA7AAAACQBAAAIAAgACACA/AoAECcAAID8CgAQJwAAQWRvYmUgUGhvdG9zaG9wIENDIDIwMTUgKFdpbmRvd3MpADIwMjA6MDg6MTkgMDk6NTE6MjEAAAAEAACQBwAEAAAAMDIyMQGgAwABAAAA//8AAAKgBAABAAAAWAIAAAOgBAABAAAAjwEAAAAAAAAAAAYAAwEDAAEAAAAGAAAAGgEFAAEAAAByAQAAGwEFAAEAAAB6AQAAKAEDAAEAAAACAAAAAQIEAAEAAACCAQAAAgIEAAEAAACFCAAAAAAAAEgAAAABAAAASAAAAAEAAAD/2P/tAAxBZG9iZV9DTQAC/+4ADkFkb2JlAGSAAAAAAf/bAIQADAgICAkIDAkJDBELCgsRFQ8MDA8VGBMTFRMTGBEMDAwMDAwRDAwMDAwMDAwMDAwMDAwMDAwMDAwMDAwMDAwMDAENCwsNDg0QDg4QFA4ODhQUDg4ODhQRDAwMDAwREQwMDAwMDBEMDAwMDAwMDAwMDAwMDAwMDAwMDAwMDAwMDAwM/8AAEQgAagCgAwEiAAIRAQMRAf/dAAQACv/EAT8AAAEFAQEBAQEBAAAAAAAAAAMAAQIEBQYHCAkKCwEAAQUBAQEBAQEAAAAAAAAAAQACAwQFBgcICQoLEAABBAEDAgQCBQcGCAUDDDMBAAIRAwQhEjEFQVFhEyJxgTIGFJGhsUIjJBVSwWIzNHKC0UMHJZJT8OHxY3M1FqKygyZEk1RkRcKjdDYX0lXiZfKzhMPTdePzRieUpIW0lcTU5PSltcXV5fVWZnaGlqa2xtbm9jdHV2d3h5ent8fX5/cRAAICAQIEBAMEBQYHBwYFNQEAAhEDITESBEFRYXEiEwUygZEUobFCI8FS0fAzJGLhcoKSQ1MVY3M08SUGFqKygwcmNcLSRJNUoxdkRVU2dGXi8rOEw9N14/NGlKSFtJXE1OT0pbXF1eX1VmZ2hpamtsbW5vYnN0dXZ3eHl6e3x//aAAwDAQACEQMRAD8A9VSSSSUpJJJJSkkkklKSSSSUpJJJJSkkkklKSSSSUpJJJJSkkkklKSSSSU//0PVUkkklKSSSSUpJJJJSkkkklKSSSSUpJJJJSkklTzuq4mGCHu33dqW6u/tf6P8Atps8kMcTKchGI6lTcSWZ0S+7Kbk5Vx9z7A0AcNa1rdrG/wCetNNw5BlgJgUJXXlaipJJJSKUkkkkp//R9VSSSSUpJJJJSkkkklKSQsrIbjY1uS8S2ljrCByQ0boXKY/1t6i3JD8lrH47j76mNgtH/BvLvc5v8v8AnP8Ag1Bm5rFhMRMkcXht4lnw8rkzRlKAHp7nfwi9gkuOy/rZ1K2w/ZQzHqB9st3vI/lud7P81ilhfW3OrsaM1rb6SYc5o2vA/eEex+39zaof9JcvxcNn+/Xo/wC+Zf8AR2fh4vTf7t+r/vXr0lyvUPrde57q+nMa2saC6wEud/KZV7dn/XP+21Uo+tXV6n7rHV3t7sc3bp/JfX9H/MsRl8R5cS4bJ/rRHpVH4dnMeKox/qyPqdTrPVbze/Foeaqqva9zTDnO5d7/AMxjVkuZ6Y93tPJb3A8XLVoxm9TY7P6c5rH2vPqi6S+t/wCcyvbNbP3m2bPU/wCEVrB+r7KbG3ZTxa5p3NYBDd3O55d7rFn5OV5nmMvEfVGRuM7/AFUMf6PC1yOAmMhUhoQ3Ok4zsbAqreIsdL3jwLju2/2foK4kktrHAQhGEdogRH+CxqSSSTlKSSSSU//S9VSSSSUpJJJJSkkkklNLrP8AyRm/8RZ/1LlwBntzwPiV3/Wf+SM3/iLP+pcuA7j4j8qyPiv85D+7+11/hf8ANz/vfseyr+qfSm44rsD33R7rw5zXT+8xgPpN/qbFyN9LqMi2hx3Ope6suHfaS3d/aXpC886l/wAp5n/hiz/qij8Sw48cMZhAR1MdP2rfh2bJklkE5GWglr+x2/q/0DCy8IZmY02+qXCtgcWtaGuNc+wtc57nNWb1/plXTc1tdJJptbvY1xktg7XM3H6Tf3V0v1Y/5Dx/jZ/59sWP9cv6djf8U7/qmo58GMclCYiBPhhLi/S9fzaqw5sh52cDImFzjw/o+j5dGf1Me4ZGXX+aWVujzBe1dUuT+pv9Lyv+LZ/1T11itfD/APc0POX/AEmr8Q/3TPyj/wBFSSSSttRSSSSSlJJJJKf/0/VUkkklKSSSSUpJJJJTT6wCek5oHPoWf9S5cAwFzmBupc5oaB3JIAXpTiA0k8AarmOnO6Wcui6vpopsuLHVk27mtN1T8rH21e5jHforGWbGfoP0fo+r/g6XOcnLPOEoyAEdJX2/qt3k+bjghOMokknijXf+s9QvPepgjqmYCIPr2H7zuH/RK6+jrbLunZPUBS5tWLWXkEiS5jPVvp/d3UP/AFd//DstWbmWdLyMm67qfTy2yhtvqvrtkuNFbMnZtqdV6v6taza+z/Cfof5v9JY7neWlnhERIBib9WyzkuZjgnIzBIkK9O7ofVj/AJDxvP1D8jZYsj65NP2zFdGhreAfMOZP/VLVxOs7jXisxWscL2YoZXY11bQaftu5jmBvtrob/N7f/A/eqN/VcXqHTKX5mIMh7nQAC5kPbV9qve1zd9tDPT/mP+5Ff6b+ifp07LyxnywwgjijGMQTt6EYuZEeZOYg8MpSJA3/AFiH6mA/ast3YV1gnzJs/uXVrJ6Iaa7cjGxsduPjMZTazUm1xta57/tG4v8AcyGs+ktZP5XCcOGOMkEi7rbVZzWYZcspgEA1V7+kcKkkklMwqSSSSUpJJJJT/9T1VJJJJSkkkklKSSSSUtzoVAUUNgtraNsbYaNNo2tj+q32oiSSkVWLRVQcdjB6R3FzTLp3kvs3792/1Hvdv3KQqqDt4Y0OkndAmSNpM/1WqaSSkVWLjUtDaaWVtadzQxoaAY27htH7rkzsPEe3Y6itzDtlpY0j2fzekf4P8xGSSUxDGBxcGgOdG4gamOJUkkklKSSSSUpJJJJSkkkklP8A/9X1VJJJJSkkkklKSSSSUpJJJJSkkkklKSSSSUpJJJJSkLIdkNaDQ0PdrLTpwHEa/wBfa1FSQO38EjdqOyc0atxSQORubJj93X+V/wCfEnZeU1rnHFcS3XaCDpDjOn9X6CtpJvq/rf8ANXaeH/Oa32nI2g/ZnTr7dw8WgflRaH2vYTbX6TgY2yHaeMhESRF3rf8AzUGq6fi//9n/7RG+UGhvdG9zaG9wIDMuMAA4QklNBAQAAAAAAA8cAVoAAxslRxwCAAACYQAAOEJJTQQlAAAAAAAQJ64hWocltEns2MP00btrrDhCSU0EOgAAAAAA5QAAABAAAAABAAAAAAALcHJpbnRPdXRwdXQAAAAFAAAAAFBzdFNib29sAQAAAABJbnRlZW51bQAAAABJbnRlAAAAAENscm0AAAAPcHJpbnRTaXh0ZWVuQml0Ym9vbAAAAAALcHJpbnRlck5hbWVURVhUAAAAAQAAAAAAD3ByaW50UHJvb2ZTZXR1cE9iamMAAAAMAFAAcgBvAG8AZgAgAFMAZQB0AHUAcAAAAAAACnByb29mU2V0dXAAAAABAAAAAEJsdG5lbnVtAAAADGJ1aWx0aW5Qcm9vZgAAAAlwcm9vZkNNWUsAOEJJTQQ7AAAAAAItAAAAEAAAAAEAAAAAABJwcmludE91dHB1dE9wdGlvbnMAAAAXAAAAAENwdG5ib29sAAAAAABDbGJyYm9vbAAAAAAAUmdzTWJvb2wAAAAAAENybkNib29sAAAAAABDbnRDYm9vbAAAAAAATGJsc2Jvb2wAAAAAAE5ndHZib29sAAAAAABFbWxEYm9vbAAAAAAASW50cmJvb2wAAAAAAEJja2dPYmpjAAAAAQAAAAAAAFJHQkMAAAADAAAAAFJkICBkb3ViQG/gAAAAAAAAAAAAR3JuIGRvdWJAb+AAAAAAAAAAAABCbCAgZG91YkBv4AAAAAAAAAAAAEJyZFRVbnRGI1JsdAAAAAAAAAAAAAAAAEJsZCBVbnRGI1JsdAAAAAAAAAAAAAAAAFJzbHRVbnRGI1B4bEBSAAAAAAAAAAAACnZlY3RvckRhdGFib29sAQAAAABQZ1BzZW51bQAAAABQZ1BzAAAAAFBnUEMAAAAATGVmdFVudEYjUmx0AAAAAAAAAAAAAAAAVG9wIFVudEYjUmx0AAAAAAAAAAAAAAAAU2NsIFVudEYjUHJjQFkAAAAAAAAAAAAQY3JvcFdoZW5QcmludGluZ2Jvb2wAAAAADmNyb3BSZWN0Qm90dG9tbG9uZwAAAAAAAAAMY3JvcFJlY3RMZWZ0bG9uZwAAAAAAAAANY3JvcFJlY3RSaWdodGxvbmcAAAAAAAAAC2Nyb3BSZWN0VG9wbG9uZwAAAAAAOEJJTQPtAAAAAAAQAEgAAAABAAEASAAAAAEAAThCSU0EJgAAAAAADgAAAAAAAAAAAAA/gAAAOEJJTQQNAAAAAAAEAAAAHjhCSU0EGQAAAAAABAAAAB44QklNA/MAAAAAAAkAAAAAAAAAAAEAOEJJTScQAAAAAAAKAAEAAAAAAAAAAThCSU0D9QAAAAAASAAvZmYAAQBsZmYABgAAAAAAAQAvZmYAAQChmZoABgAAAAAAAQAyAAAAAQBaAAAABgAAAAAAAQA1AAAAAQAtAAAABgAAAAAAAThCSU0D+AAAAAAAcAAA/////////////////////////////wPoAAAAAP////////////////////////////8D6AAAAAD/////////////////////////////A+gAAAAA/////////////////////////////wPoAAA4QklNBAgAAAAAABAAAAABAAACQAAAAkAAAAAAOEJJTQQeAAAAAAAEAAAAADhCSU0EGgAAAAADXQAAAAYAAAAAAAAAAAAAAY8AAAJYAAAAFABsAG8AZwBvAC0AYgBhAG4ALQBoAGEAbgBnAC0AZABlAHAALQAwADEAAAABAAAAAAAAAAAAAAAAAAAAAAAAAAEAAAAAAAAAAAAAAlgAAAGPAAAAAAAAAAAAAAAAAAAAAAEAAAAAAAAAAAAAAAAAAAAAAAAAEAAAAAEAAAAAAABudWxsAAAAAgAAAAZib3VuZHNPYmpjAAAAAQAAAAAAAFJjdDEAAAAEAAAAAFRvcCBsb25nAAAAAAAAAABMZWZ0bG9uZwAAAAAAAAAAQnRvbWxvbmcAAAGPAAAAAFJnaHRsb25nAAACWAAAAAZzbGljZXNWbExzAAAAAU9iamMAAAABAAAAAAAFc2xpY2UAAAASAAAAB3NsaWNlSURsb25nAAAAAAAAAAdncm91cElEbG9uZwAAAAAAAAAGb3JpZ2luZW51bQAAAAxFU2xpY2VPcmlnaW4AAAANYXV0b0dlbmVyYXRlZAAAAABUeXBlZW51bQAAAApFU2xpY2VUeXBlAAAAAEltZyAAAAAGYm91bmRzT2JqYwAAAAEAAAAAAABSY3QxAAAABAAAAABUb3AgbG9uZwAAAAAAAAAATGVmdGxvbmcAAAAAAAAAAEJ0b21sb25nAAABjwAAAABSZ2h0bG9uZwAAAlgAAAADdXJsVEVYVAAAAAEAAAAAAABudWxsVEVYVAAAAAEAAAAAAABNc2dlVEVYVAAAAAEAAAAAAAZhbHRUYWdURVhUAAAAAQAAAAAADmNlbGxUZXh0SXNIVE1MYm9vbAEAAAAIY2VsbFRleHRURVhUAAAAAQAAAAAACWhvcnpBbGlnbmVudW0AAAAPRVNsaWNlSG9yekFsaWduAAAAB2RlZmF1bHQAAAAJdmVydEFsaWduZW51bQAAAA9FU2xpY2VWZXJ0QWxpZ24AAAAHZGVmYXVsdAAAAAtiZ0NvbG9yVHlwZWVudW0AAAARRVNsaWNlQkdDb2xvclR5cGUAAAAATm9uZQAAAAl0b3BPdXRzZXRsb25nAAAAAAAAAApsZWZ0T3V0c2V0bG9uZwAAAAAAAAAMYm90dG9tT3V0c2V0bG9uZwAAAAAAAAALcmlnaHRPdXRzZXRsb25nAAAAAAA4QklNBCgAAAAAAAwAAAACP/AAAAAAAAA4QklNBBEAAAAAAAEBADhCSU0EFAAAAAAABAAAAAI4QklNBAwAAAAACKEAAAABAAAAoAAAAGoAAAHgAADGwAAACIUAGAAB/9j/7QAMQWRvYmVfQ00AAv/uAA5BZG9iZQBkgAAAAAH/2wCEAAwICAgJCAwJCQwRCwoLERUPDAwPFRgTExUTExgRDAwMDAwMEQwMDAwMDAwMDAwMDAwMDAwMDAwMDAwMDAwMDAwBDQsLDQ4NEA4OEBQODg4UFA4ODg4UEQwMDAwMEREMDAwMDAwRDAwMDAwMDAwMDAwMDAwMDAwMDAwMDAwMDAwMDP/AABEIAGoAoAMBIgACEQEDEQH/3QAEAAr/xAE/AAABBQEBAQEBAQAAAAAAAAADAAECBAUGBwgJCgsBAAEFAQEBAQEBAAAAAAAAAAEAAgMEBQYHCAkKCxAAAQQBAwIEAgUHBggFAwwzAQACEQMEIRIxBUFRYRMicYEyBhSRobFCIyQVUsFiMzRygtFDByWSU/Dh8WNzNRaisoMmRJNUZEXCo3Q2F9JV4mXys4TD03Xj80YnlKSFtJXE1OT0pbXF1eX1VmZ2hpamtsbW5vY3R1dnd4eXp7fH1+f3EQACAgECBAQDBAUGBwcGBTUBAAIRAyExEgRBUWFxIhMFMoGRFKGxQiPBUtHwMyRi4XKCkkNTFWNzNPElBhaisoMHJjXC0kSTVKMXZEVVNnRl4vKzhMPTdePzRpSkhbSVxNTk9KW1xdXl9VZmdoaWprbG1ub2JzdHV2d3h5ent8f/2gAMAwEAAhEDEQA/APVUkkklKSSSSUpJJJJSkkkklKSSSSUpJJJJSkkkklKSSSSUpJJJJSkkkklP/9D1VJJJJSkkkklKSSSSUpJJJJSkkkklKSSSSUpJJU87quJhgh7t93alurv7X+j/ALabPJDHEynIRiOpU3ElmdEvuym5OVcfc+wNAHDWta3axv8AnrTTcOQZYCYFCV15WoqSSSUilJJJJKf/0fVUkkklKSSSSUpJJJJSkkLKyG42NbkvEtpY6wgckNG6FymP9beotyQ/Jax+O4++pjYLR/wby73Ob/L/AJz/AINQZuaxYTETJHF4beJZ8PK5M0ZSgB6e538IvYJLjsv62dStsP2UMx6gfbLd7yP5bnez/NYpYX1tzq7GjNa2+kmHOaNrwP3hHsft/c2qH/SXL8XDZ/v16P8AvmX/AEdn4eL03+7fq/7169Jcr1D63Xue6vpzGtrGgusBLnfymVe3Z/1z/ttVKPrV1ep+6x1d7e7HN26fyX1/R/zLEZfEeXEuGyf60R6VR+HZzHiqMf6sj6nU6z1W83vxaHmqqr2vc0w5zuXe/wDMY1ZLmemPd7TyW9wPFy1aMZvU2Oz+nOax9rz6oukvrf8AnMr2zWz95tmz1P8AhFawfq+ymxt2U8WuadzWAQ3dzueXe6xZ+TleZ5jLxH1RkbjO/wBVDH+jwtcjgJjIVIaENzpOM7GwKq3iLHS948C47tv9n6CuJJLaxwEIRhHaIER/gsakkkk5SkkkklP/0vVUkkklKSSSSUpJJJJTS6z/AMkZv/EWf9S5cAZ7c8D4ld/1n/kjN/4iz/qXLgO4+I/Ksj4r/OQ/u/tdf4X/ADc/737Hsq/qn0puOK7A990e68Oc10/vMYD6Tf6mxcjfS6jItocdzqXurLh32kt3f2l6QvPOpf8AKeZ/4Ys/6oo/EsOPHDGYQEdTHT9q34dmyZJZBORloJa/sdv6v9AwsvCGZmNNvqlwrYHFrWhrjXPsLXOe5zVm9f6ZV03NbXSSabW72NcZLYO1zNx+k391dL9WP+Q8f42f+fbFj/XL+nY3/FO/6pqOfBjHJQmIgT4YS4v0vX82qsObIednAyJhc48P6Po+XRn9THuGRl1/mllbo8wXtXVLk/qb/S8r/i2f9U9dYrXw/wD3NDzl/wBJq/EP90z8o/8ARUkkkrbUUkkkkpSSSSSn/9P1VJJJJSkkkklKSSSSU0+sAnpOaBz6Fn/UuXAMBc5gbqXOaGgdySAF6U4gNJPAGq5jpzulnLour6aKbLix1ZNu5rTdU/Kx9tXuYx36Kxlmxn6D9H6Pq/4OlznJyzzhKMgBHSV9v6rd5Pm44ITjKJJJ4o13/rPULz3qYI6pmAiD69h+87h/0Suvo62y7p2T1AUubVi1l5BIkuYz1b6f3d1D/wBXf/w7LVm5lnS8jJuu6n08tsobb6r67ZLjRWzJ2banVer+rWs2vs/wn6H+b/SWO53lpZ4RESAYm/Vss5LmY4JyMwSJCvTu6H1Y/wCQ8bz9Q/I2WLI+uTT9sxXRoa3gHzDmT/1S1cTrO414rMVrHC9mKGV2NdW0Gn7buY5gb7a6G/ze3/wP3qjf1XF6h0yl+ZiDIe50AAuZD21far3tc3fbQz0/5j/uRX+m/on6dOy8sZ8sMII4oxjEE7ehGLmRHmTmIPDKUiQN/wBYh+pgP2rLd2FdYJ8ybP7l1ayeiGmu3IxsbHbj4zGU2s1JtcbWue/7RuL/AHMhrPpLWT+VwnDhjjJBIu621Wc1mGXLKYBANVe/pHCpJJJTMKkkkklKSSSSU//U9VSSSSUpJJJJSkkkklLc6FQFFDYLa2jbG2GjTaNrY/qt9qIkkpFVi0VUHHYwekdxc0y6d5L7N+/dv9R73b9ykKqg7eGNDpJ3QJkjaTP9VqmkkpFVi41LQ2mllbWnc0MaGgGNu4bR+65M7DxHt2Oorcw7ZaWNI9n83pH+D/MRkklMQxgcXBoDnRuIGpjiVJJJJSkkkklKSSSSUpJJJJT/AP/V9VSSSSUpJJJJSkkkklKSSSSUpJJJJSkkkklKSSSSUpCyHZDWg0ND3ay06cBxGv8AX2tRUkDt/BI3ajsnNGrcUkDkbmyY/d1/lf8AnxJ2XlNa5xxXEt12gg6Q4zp/V+graSb6v63/ADV2nh/zmt9pyNoP2Z06+3cPFoH5UWh9r2E21+k4GNsh2njIREkRd63/AM1Bqun4v//ZADhCSU0EIQAAAAAAXQAAAAEBAAAADwBBAGQAbwBiAGUAIABQAGgAbwB0AG8AcwBoAG8AcAAAABcAQQBkAG8AYgBlACAAUABoAG8AdABvAHMAaABvAHAAIABDAEMAIAAyADAAMQA1AAAAAQA4QklNBAYAAAAAAAcABAAAAAEBAP/hDrFodHRwOi8vbnMuYWRvYmUuY29tL3hhcC8xLjAvADw/eHBhY2tldCBiZWdpbj0i77u/IiBpZD0iVzVNME1wQ2VoaUh6cmVTek5UY3prYzlkIj8+IDx4OnhtcG1ldGEgeG1sbnM6eD0iYWRvYmU6bnM6bWV0YS8iIHg6eG1wdGs9IkFkb2JlIFhNUCBDb3JlIDUuNi1jMDY3IDc5LjE1Nzc0NywgMjAxNS8wMy8zMC0yMzo0MDo0MiAgICAgICAgIj4gPHJkZjpSREYgeG1sbnM6cmRmPSJodHRwOi8vd3d3LnczLm9yZy8xOTk5LzAyLzIyLXJkZi1zeW50YXgtbnMjIj4gPHJkZjpEZXNjcmlwdGlvbiByZGY6YWJvdXQ9IiIgeG1sbnM6eG1wPSJodHRwOi8vbnMuYWRvYmUuY29tL3hhcC8xLjAvIiB4bWxuczp4bXBNTT0iaHR0cDovL25zLmFkb2JlLmNvbS94YXAvMS4wL21tLyIgeG1sbnM6c3RSZWY9Imh0dHA6Ly9ucy5hZG9iZS5jb20veGFwLzEuMC9zVHlwZS9SZXNvdXJjZVJlZiMiIHhtbG5zOnN0RXZ0PSJodHRwOi8vbnMuYWRvYmUuY29tL3hhcC8xLjAvc1R5cGUvUmVzb3VyY2VFdmVudCMiIHhtbG5zOmRjPSJodHRwOi8vcHVybC5vcmcvZGMvZWxlbWVudHMvMS4xLyIgeG1sbnM6cGhvdG9zaG9wPSJodHRwOi8vbnMuYWRvYmUuY29tL3Bob3Rvc2hvcC8xLjAvIiB4bXA6Q3JlYXRvclRvb2w9IkFkb2JlIFBob3Rvc2hvcCBDQyAyMDE1IChXaW5kb3dzKSIgeG1wOkNyZWF0ZURhdGU9IjIwMjAtMDgtMTlUMDk6NDM6MjArMDc6MDAiIHhtcDpNb2RpZnlEYXRlPSIyMDIwLTA4LTE5VDA5OjUxOjIxKzA3OjAwIiB4bXA6TWV0YWRhdGFEYXRlPSIyMDIwLTA4LTE5VDA5OjUxOjIxKzA3OjAwIiB4bXBNTTpJbnN0YW5jZUlEPSJ4bXAuaWlkOjIzODcwYzMzLTk0MjItZjU0OS1hMzdmLTlmYTk3YzIzMWI5OSIgeG1wTU06RG9jdW1lbnRJRD0iYWRvYmU6ZG9jaWQ6cGhvdG9zaG9wOmRjOWY1M2QxLWUxYzYtMTFlYS05NTlhLWEwNDA3MTZkYzMzMCIgeG1wTU06T3JpZ2luYWxEb2N1bWVudElEPSJ4bXAuZGlkOkJFNDI5RDM4RTFDNTExRUFBMUZDQTMwMkIxRUY1ODI1IiBkYzpmb3JtYXQ9ImltYWdlL2pwZWciIHBob3Rvc2hvcDpDb2xvck1vZGU9IjMiPiA8eG1wTU06RGVyaXZlZEZyb20gc3RSZWY6aW5zdGFuY2VJRD0ieG1wLmlpZDpCRTQyOUQzNUUxQzUxMUVBQTFGQ0EzMDJCMUVGNTgyNSIgc3RSZWY6ZG9jdW1lbnRJRD0ieG1wLmRpZDpCRTQyOUQzNkUxQzUxMUVBQTFGQ0EzMDJCMUVGNTgyNSIvPiA8eG1wTU06SGlzdG9yeT4gPHJkZjpTZXE+IDxyZGY6bGkgc3RFdnQ6YWN0aW9uPSJzYXZlZCIgc3RFdnQ6aW5zdGFuY2VJRD0ieG1wLmlpZDo4YTlkNjdjMy03NzVkLWQ1NGItOGI1My1jMjE3YTE2MDdkOGQiIHN0RXZ0OndoZW49IjIwMjAtMDgtMTlUMDk6NTE6MjErMDc6MDAiIHN0RXZ0OnNvZnR3YXJlQWdlbnQ9IkFkb2JlIFBob3Rvc2hvcCBDQyAyMDE1IChXaW5kb3dzKSIgc3RFdnQ6Y2hhbmdlZD0iLyIvPiA8cmRmOmxpIHN0RXZ0OmFjdGlvbj0ic2F2ZWQiIHN0RXZ0Omluc3RhbmNlSUQ9InhtcC5paWQ6MjM4NzBjMzMtOTQyMi1mNTQ5LWEzN2YtOWZhOTdjMjMxYjk5IiBzdEV2dDp3aGVuPSIyMDIwLTA4LTE5VDA5OjUxOjIxKzA3OjAwIiBzdEV2dDpzb2Z0d2FyZUFnZW50PSJBZG9iZSBQaG90b3Nob3AgQ0MgMjAxNSAoV2luZG93cykiIHN0RXZ0OmNoYW5nZWQ9Ii8iLz4gPC9yZGY6U2VxPiA8L3htcE1NOkhpc3Rvcnk+IDwvcmRmOkRlc2NyaXB0aW9uPiA8L3JkZjpSREY+IDwveDp4bXBtZXRhPiAgICAgICAgICAgICAgICAgICAgICAgICAgICAgICAgICAgICAgICAgICAgICAgICAgICAgICAgICAgICAgICAgICAgICAgICAgICAgICAgICAgICAgICAgICAgICAgICAgICAgICAgICAgICAgICAgICAgICAgICAgICAgICAgICAgICAgICAgICAgICAgICAgICAgICAgICAgICAgICAgICAgICAgICAgICAgICAgICAgICAgICAgICAgICAgICAgICAgICAgICAgICAgICAgICAgICAgICAgICAgICAgICAgICAgICAgICAgICAgICAgICAgICAgICAgICAgICAgICAgICAgICAgICAgICAgICAgICAgICAgICAgICAgICAgICAgICAgICAgICAgICAgICAgICAgICAgICAgICAgICAgICAgICAgICAgICAgICAgICAgICAgICAgICAgICAgICAgICAgICAgICAgICAgICAgICAgICAgICAgICAgICAgICAgICAgICAgICAgICAgICAgICAgICAgICAgICAgICAgICAgICAgICAgICAgICAgICAgICAgICAgICAgICAgICAgICAgICAgICAgICAgICAgICAgICAgICAgICAgICAgICAgICAgICAgICAgICAgICAgICAgICAgICAgICAgICAgICAgICAgICAgICAgICAgICAgICAgICAgICAgICAgICAgICAgICAgICAgICAgICAgICAgICAgICAgICAgICAgICAgICAgICAgICAgICAgICAgICAgICAgICAgICAgICAgICAgICAgICAgICAgICAgICAgICAgICAgICAgICAgICAgICAgICAgICAgICAgICAgICAgICAgICAgICAgICAgICAgICAgICAgICAgICAgICAgICAgICAgICAgICAgICAgICAgICAgICAgICAgICAgICAgICAgICAgICAgICAgICAgICAgICAgICAgICAgICAgICAgICAgICAgICAgICAgICAgICAgICAgICAgICAgICAgICAgICAgICAgICAgICAgICAgICAgICAgICAgICAgICAgICAgICAgICAgICAgICAgICAgICAgICAgICAgICAgICAgICAgICAgICAgICAgICAgICAgICAgICAgICAgICAgICAgICAgICAgICAgICAgICAgICAgICAgICAgICAgICAgICAgICAgICAgICAgICAgICAgICAgICAgICAgICAgICAgICAgICAgICAgICAgICAgICAgICAgICAgICAgICAgICAgICAgICAgICAgICAgICAgICAgICAgICAgICAgICAgICAgICAgICAgICAgICAgICAgICAgICAgICAgICAgICAgICAgICAgICAgICAgICAgICAgICAgICAgICAgICAgICAgICAgICAgICAgICAgICAgICAgICAgICAgICAgICAgICAgICAgICAgICAgICAgICAgICAgICAgICAgICAgICAgICAgICAgICAgICAgICAgICAgICAgICAgICAgICAgICAgICAgICAgICAgICAgICAgICAgICAgICAgICAgICAgICAgICAgICAgICAgICAgICAgICAgICAgICAgICAgICAgICAgICAgICAgICAgICAgICAgICAgICAgICAgICAgICAgICAgICAgICAgICAgICAgICAgICAgICAgICAgICAgICAgICAgICAgICAgICAgICAgICAgICAgICAgICAgICAgICAgICAgICAgICAgICAgICAgICAgICAgICAgICAgICAgICAgICAgICAgICAgICAgICAgICAgICAgICAgICAgICAgICAgICAgICAgICAgICAgICAgICAgICAgICAgICAgICAgICAgICAgICAgICAgICAgICAgICAgICAgICAgICAgICAgICAgICAgICAgICAgICAgICAgICAgICAgICAgICAgICAgICAgICAgICAgICAgICAgICAgICAgICAgICAgICAgICAgICAgICAgICAgICAgICAgICAgICAgICAgICAgICAgICAgICAgICAgICAgICAgICAgICAgICAgICAgICAgICAgICAgICAgICAgICAgICAgICAgICAgICAgICAgICAgICAgICAgICAgICAgICAgICAgICAgICAgICAgICAgICAgICAgICAgICAgICAgICAgICAgICAgICAgICAgICAgICAgICAgICAgICAgICAgICAgICAgICAgICAgICAgICAgICAgICAgICAgICAgICAgICAgICAgICAgICAgICAgICAgICAgICAgICAgICAgICAgICAgICAgICAgICAgICAgICAgICAgICAgICAgICAgICAgICAgICAgICAgICAgICAgICAgICAgICAgICAgICAgICAgICAgICAgICAgICAgICAgICAgICAgICAgICAgICAgICAgICAgICAgICAgICAgICAgICAgICAgICAgICAgICAgICAgICAgICAgICAgICAgICAgICAgICAgICAgICAgICAgICAgICAgICAgICAgICAgICAgICAgICAgICAgICAgICAgICAgICAgICAgICAgICAgICAgICAgICAgICAgICAgICAgICAgICAgICAgICAgICAgICAgICAgICAgICAgICAgICAgICAgICAgICAgICAgICAgICAgIDw/eHBhY2tldCBlbmQ9InciPz7/7gAOQWRvYmUAZAAAAAAB/9sAhAAGBAQEBQQGBQUGCQYFBgkLCAYGCAsMCgoLCgoMEAwMDAwMDBAMDAwMDAwMDAwMDAwMDAwMDAwMDAwMDAwMDAwMAQcHBw0MDRgQEBgUDg4OFBQODg4OFBEMDAwMDBERDAwMDAwMEQwMDAwMDAwMDAwMDAwMDAwMDAwMDAwMDAwMDAz/wAARCAGPAlgDAREAAhEBAxEB/90ABABL/8QBogAAAAcBAQEBAQAAAAAAAAAABAUDAgYBAAcICQoLAQACAgMBAQEBAQAAAAAAAAABAAIDBAUGBwgJCgsQAAIBAwMCBAIGBwMEAgYCcwECAxEEAAUhEjFBUQYTYSJxgRQykaEHFbFCI8FS0eEzFmLwJHKC8SVDNFOSorJjc8I1RCeTo7M2F1RkdMPS4ggmgwkKGBmElEVGpLRW01UoGvLj88TU5PRldYWVpbXF1eX1ZnaGlqa2xtbm9jdHV2d3h5ent8fX5/c4SFhoeIiYqLjI2Oj4KTlJWWl5iZmpucnZ6fkqOkpaanqKmqq6ytrq+hEAAgIBAgMFBQQFBgQIAwNtAQACEQMEIRIxQQVRE2EiBnGBkTKhsfAUwdHhI0IVUmJy8TMkNEOCFpJTJaJjssIHc9I14kSDF1STCAkKGBkmNkUaJ2R0VTfyo7PDKCnT4/OElKS0xNTk9GV1hZWltcXV5fVGVmZ2hpamtsbW5vZHV2d3h5ent8fX5/c4SFhoeIiYqLjI2Oj4OUlZaXmJmam5ydnp+So6SlpqeoqaqrrK2ur6/9oADAMBAAIRAxEAPwD1TirsVdirsVdirsVdirsVdirsVdirsVdirsVdirsVdirsVdirsVdirsVdirsVdirsVdirsVdirsVdirsVdirsVdirsVdirsVdirsVdirsVdirsVdirsVdirsVdirsVdirsVdirsVdirsVdirsVdirsVdirsVdirsVdirsVdirsVdirsVdirsVdirsVdir/9D1TirsVdirsVdirsVdirsVdirsVdirsVdirsVdirsVdirsVdirsVdirsVdirsVdirsVdirsVdirsVdirsVdirsVdirsVdirsVdirsVdirsVdirsVdirsVdirsVdirsVdirsVdirsVdirsVdirsVdirsVdirsVdirsVdirsVdirsVdirsVdirsVdirsVdir/9H1TirsVdirsVdirsVdirsVdirsVdirsVdirsVdirsVdirsVdirsVdirsVdirsVdirsVdirsVdirsVdirsVdirsVdirsVdirsVdirsVdirsVdirsVdirsVdirsVdirsVdirsVdirsVdirsVdirsVdirsVdirsVdirsVdirsVdirsVdirsVdirsVdirsVdir/9L1TirsVdirsVdirsVdirsVdirsVdirsVdirsVdirsVdirsVdirsVdirsVdirsVdirsVdirsVdirsVdirsVdirsVdirsVdirsVdirsVdirsVdirsVdirsVdirsVdirsVdirsVdirsVdirsVdirsVdirsVdirsVdirsVdirsVdirsVdirsVdirsVdirsVdir/9P1TirsVdirsVdirsVdirsVdirsVdirsVdirsVdirsVdirsVdirsVdirsVdirsVdirsVdirsVdirsVdirsVdirsVdirsVdirsVdirsVdirsVdirsVdirsVdirsVdirsVdirsVdirsVdirsVdirsVdirsVdirsVdirsVdirsVdirsVdirsVdirsVdirsVdir/9T1TirsVdirsVdirsVdirsVdirsVdirsVdirsVdirsVdirsVdirsVdirsVdirsVdirsVdirsVdirsVdirsVdirsVdirsVdirsVdirsVdirsVdirsVdirsVdirsVdirsVdirsVdirsVdirsVdirsVdirsVdirsVdirsVdirsVdirsVdirsVdirsVdirsVdir/9X1TirsVdirsVdirsVdirsVdirsVdirsVdirsVdirsVdirsVdirsVdirsVdirsVdirsVdirsVdirsVdirsVdirsVdirsVdirsVdirsVdirsVdirsVdirsVdirsVdirsVdirsVdirsVdirsVdirsVdirsVdirsVdirsVdirsVdirsVdirsVdirsVdirsVdir/9b1TirsVdirsVdirsVdirsVdirsVdirsVdirsVdirsVdirsVdirsVdirsVdirsVdirsVdirsVdirsVdirsVdirsVdirsVdirsVdirsVdirsVdirsVdirsVdirsVdirsVdirsVdirsVdirsVdirsVdirsVdirsVdirsVdirsVdirsVdirsVdirsVdirsVdir/9f1TirsVdirsVdirsVdirsVdirsVdirsVdirsVdirsVdirsVdirsVdirsVdirsVdirsVdirsVdirsVdirsVdirsVdirsVdirsVdirsVdirsVdirsVdirsVdirsVdirsVdirsVdirsVdirsVdirsVdirsVdirsVdirsVdirsVdirsVdirsVdirsVdirsVdir/9D1TirsVdirsVdirsVdirsVdirsVdirsVdirsVdirsVdirsVdirsVdirsVdirsVdirsVdirsVdirsVdirsVdirsVdirsVdirsVdirsVdirsVdirsVdirsVdirsVdirsVdirsVdirsVdirsVdirsVdirsVdirsVdirsVdirsVdirsVdirsVdirsVdirsVdir/9H1TirsVdirsVdirsVdirsVdirsVdirsVdirsVdirsVdirsVdirsVdirsVdirsVdirsVdirsVdirsVdirsVdirsVdirsVdirsVdirsVdirsVdirsVdirsVdirsVdirsVdirsVdirq4q6oxV2KuxV2KuxV2KuxV2KuxV2KuxV2KuxV2KuxV2KuxV2KuxV2KuxV//0vVOKuxV2KuxV2KuxV2KuxV2KuxV2KuxV2KuxV2KuxV2KuxV2KuxV2KuxV2KuxV2KuxV2KuxV2KuxV2KuxV2KuxV2KuxV2KuxV2KuxV2KuxV2KuxV2KuxV2KuxV2KuxV2KuxV2Kpdr2sQ6Tp0l1Ju4+GCP8AnkPQf1zC1+tjp8Zmef8ADH+kkC2vL008+jWk07c5pU5u3uxJwdnzlPBCUt5SHEpTLM5DsVdirsVdirsVdirsVdirsVdirsVdirsVdirsVdirsVdirsVf/9P1TirsVdirsVdirsVdirsVdirsVdirsVdirsVdirsVdirsVdirsVdirsVdirsVdirsVdirsVdirsVdirsVdirsVdirsVdirsVdirsVdirsVdirsVdirsVdirsVdirsVdirsVULy9trOB7i5cRwxirOcqzZ4YomUzwxCQHlvmPX5tYvjNultGCtvEeynqx/ymzgO0tedTkv+AfRH/ff1m6MaelaFH6ejWKdxBHX5lQc7jQRrBAf0A0nmj8zEOxV2KuxV2KuxV2KuxV2KuxV2KuxV2KuxV2KuxV2KuxV2KuxV//U9U4q7FXYq7FXYq7FXYq7FXYq7FXYq7FXYq7FXYq7FXYq7FXYq7FXYq7FXYq7FXYq7FXYq7FXYq7FXYq7FXYq7FXYq7FXYq7FXYq7FXYq7FXYq7FXYq7FXYq7FXYq7FXHFUu1fXtP0qLndSgOR+7gXd3PsP45havX49PG5nf+b/EkRJea675hvtZn5T/Bbof3Vup+Ee7eLZxGv7QyaiVy2iPph+P4m0RpLKFthuTsB75gVbJ7TbRenbwx/wAiKv3Cmen441EDuDjquWK7FXYq7FXYq7FXYq7FXYq7FXYq7FXYq7FXYq7FXYq7FXYq7FX/1fVOKuxV2KuxV2KuxV2KuxV2KuxV2KuxV2KuxV2KuxV2KuxV2KuxV2KuxV2KuxV2KuxV2KuxV2KuxV2KuxV2KuxV2KuxV2KuxV2KuxV2KuxV2KuxV2KuxV2KuxV2KoHUdZ03Tk5XlwsVfsoTVz8lG+Yup1mLALmeFIFsO1f8wrqYNFpkfoIdvrElGeniF6LnNaz2hlLbEOEfz5MxBic8008rTTu0sz/bdzyJ+nOdnklM3I8UmyqWZBUVpUBuNUs4AP7yaMfQGBP4DMjSY+PNCPfOP3oPJ7JnpjQ7FXYq7FXYq7FXYq7FXYq7FXYq7FXYq7FXYq7FXYq7FXYq7FXYq//W9U4q7FXYq7FXYq7FXYq7FXYq7FXYq7FXYq7FXYq7FXYq7FXYq7FXYq7FXYq7FXYq7FXYq7FXYq7FXYq7FXYq7FXYq7FXYq7FXYq7FXYq7FXYq7FXYq7FXEgdcVS/V9c03So+d3LxJHwRLu7fJcw9XrsWAXM/BIBLB9W8+andco7IfU4T0YfFKR/rdF/2OcrrO3suTbH+7j/s2wQY07yO5eRjI7fadjUn6TvmjlIyNk2f9MzawK7FXYqn/ka0M/mKJyKpbI8rfOnFfxObfsLFx6kH/UxxMZnZ6fneNLsVdirsVdirsVdirsVdirsVdirsVdirsVdirsVdirsVdirsVdir/9f1TirsVdirsVdirsVdirsVdirsVdirsVdirsVdirsVdirsVdirsVdirsVdirsVdirsVdirsVdirsVdirsVdirsVdirsVdirsVdirsVdirsVdirsVdirsVY35r81ppai2taPfuK0O4jB6Mw8f5VzSdrdrDAOCG+U/7D+syjG3nNxcT3MzT3EjSzP9p3NSf6ZxWXJLJIymeKRbgFPIK7FXYq7FWsVZ7+XViUtLm+YbzMI4z/AJKdf+GOdd7OYKhLJ/OPD/pWqZZlnSsHYq7FXYq7FXYq7FXYq7FXYq7FXYq7FXYq7FXYq7FXYq7FXYq7FX//0PVOKuxV2KuxV2KuxV2KuxV2KuxV2KuxV2KuxV2KuxV2KuxV2KuxV2KuxV2KuxV2KuxV2KuxV2KuxV2KuxV2KuxV2KuxV2KuxV2KuxV2KuxV2KuxV2KoTVb9NP06e8kFRChYL4nsPpOY2r1Aw4pTP8ISA8fuLma5uJLiZuU0rF5D7nPOMuWWSRnL6pN45LMgrsVbCszKiAs7kKiqCSSewAwgEmhuVKKu7WK0T0ZG5XxNZEU/DEP5WI+1If2qfYy/LiGMcJP73+L/AGv+h/X/AJyLQmY6V0UcssqRRCskjBUHuxoMMYmRAG5KvYNJ09NP023s0NRCgUnxbqx+k56TpNP4OKMP5oaCbRmZKHYq7FXYq7FXYq7FXYq7FXYq7FXYq7FXYq7FXYq7FXYq7FXYq7FX/9H1TirsVdirsVdirsVdirsVdirsVdirsVdirsVdirsVdirsVdirsVdirsVdirsVdirsVdirsVdirsVdirsVdirsVdirsVdirsVdirsVdirsVdirsVdirFvzDnZNEjiHSadQ3yUFv1jNB7QzrAB/PkzhzedZxba7FVeysby+nEFrEZJDueyqB1Z2Oyrl2DTzyy4YDiP+5/pTQSjZLi00wNDp7ie9IKzagPsr/MtvX/hpf+BzLlkhpxw4jx5P483/AFR/6qKN0qzXJbxVlfkHRTcXjalMv7m2PGCvQynqf9gM6H2f0RnPxZfTH6P67CZehjpnZNTsVdirsVdirsVdirsVdirsVdirsVdirsVdirsVdirsVdirsVdirsVf/9L1TirsVdirsVdirsVdirsVdirsVdirsVdirsVdirsVdirsVdirsVdirsVdirsVdirsVdiqlJd2sTcZJkRv5WYA/icgckRzIZjHI8gVRHR1DKwZT0INRkgQeTEgjm3hQ7FXYqhrrUrC2qbi6ihA6+o6r+s5VPNCPMgfFnHFOXIE/BBf4q8tcuP6Vta+Hqp/XKfz2H+fD5t35HN/Mn8kXbarptz/ALz3cMx8EkVj+By2OfHLlKJ+LVLDOPOJCLy5rdirsVdirqjFVskiInJ2CKP2iaD8cEiAN0gE8kvm8x6DCxWXUrZCOoMqf1zHlrMMec4/NvjpMsuUJfJqHzL5fmcJFqVs7HoBKn9cY6zDLlOP+mWWkyx5xl8kxiljkQPG6up6MpBH3jMiMgRYaCCOa7Chif5ioTpFu/ZJxX6UYZz3tFG8MT3T/WzhzefRxvI6xxqzyMaKiglj8gM46IJNR3Lan8HldLa3F5r0/wBStz9m2Whnk9qfs5uMfZYxjj1EvCj/ADB/ezYcV8kJqGu84GsNNhFjpx+1Gu8klO8r9f8AY5j6jX8UfDxR8LD3R/vJ/wDDJJA70pFO2a5k3gVMdC0K71i7EUPwwr/f3HZB7eLfyjM7Q6Cepnwx+n+Of83/AI8xkaeq2Flb2VpHa26cYohxUd/mfc56BgwRxQEIioxaibRGXIdirsVdirsVdirsVdirsVdirsVdirsVdirsVdirsVdirsVdirsVdir/AP/T9U4q7FXYq7FXYq7FXYq7FXYq7FXYq7FXYq7FXYq7FXYq7FXYq7FXYq7FXYq7FXYq49Dirybzv+Yd3cXMum6PMYLSImOa6Q0eRgaMEPVUHSo+1nJdp9sSlIwxHhiNuL+Kb1XZnZMYxE8o4pH+H+YwF/3jFpayMTUs55Hf3OaA77ku+FR5JhpGvato9wJtPuXipTlGSWjYDsUJpmRp9XlxG4yMf9z/AKRo1Gkx5RUgD5/xf6Z7P5Q82WvmHT/VUCK8hot1b1+yT0ZfFGztOz9fHUQvlMfVF4zX6GWnnX8J+iSh5q89aVoH7k1udQYVW1jP2R4yN+yP+GyGu7Tx6fb6p/zWeh7Myajf6IfznmGs+fPMuqswe6NtAf8Aj3tyUWh7Fh8bfSc5bU9qZ8vXhj/Nh6Xp9P2XgxD6eI/zpepjzAM3J/jc9WarH7zvmuO/N2A22GzqDwxVwVQQwFCO42P341XJN96c6T5u8x6WV+q30hiU/wBxKfUQ/wCxav4HM3B2hnxfTL/N/hcPPoMGX6oj3/TJ6N5W/Myx1SZLLUIxZXr7RuGrDIfAE7qfZs6TQ9tQykRmOCf+web13Y08Q4oHjh/s2bgjN46ZA6xrel6Tam6v51hiH2QftMfBV6sco1Gox4o8UzwtuDTzyy4YDieZ67+a+p3JaLSIhZwdBPIA8x96fZT/AIbOY1Xb05bYxwR/nfxvTaXsLHHfIeOX83+Bhl7qOo38hkvbqW5Y9fUdiPu6ZpcueczciZu5xYYQFRAihgiACgAHsKZVTbbiqnqAcaW0TZajqFhIJLK5ltnHeJyo+4bZZjzTx/RIxasuGGT6wJM38v8A5r3sDLDrcf1iHYfWYgFkX3ZfsuPlm90nb0o7ZRxD+fH6nSavsKMt8R4ZfzP4f9M9Clj0nzFpSFZRcWUpWRZImpuprTxH+UM3+bFi1eIAnixnf0vNThLHIiQ4ZBINQXVtFV49G0ZIYiKfW0/fyH5j7Q+nlml1Pjab04MQjH/VY/vZIG/NhV5cXk87SXsjyT92lrUe2/2fozl82Sc5XMky/pNoCiHU9x8sqsFURa2N7dMFtreSZj2RSfx6Zfi0+TIfRGUvgthk+kfl9eSssupv6MXX0IzVyPAt9lc3uj9npy3yngH8yP49LAz7mc2Vla2VutvbRLFCnRV/WfE51eHDHFERgOGIayr5ah2KuxV2KuxV2KuxV2KuxV2KuxV2KuxV2KuxV2KuxV2KuxV2KuxV2KuxV//U9U4q7FXYq7FXYq7FXYq7FXYq7FXYq7FXYq7FXYq7FXYq7FXYq7FXYq7FXYq7FXYqkXnfVH07yvf3ETcZjH6cTeDSEJ+Fa5gdpZjjwSkOf/FOb2dhGTPGJ5f8S8FApnA094W8UOxVGaXq+o6VdG5sJjDMUMbNStVbxB2/1cuwaieGXFA0WrPghmjwzHEELJLJLI8krGSRyWd2NWLHuSeuVEkmybJbAAAAByW4EuxV2KuxV2KtEV69MVZ/of5pTWOhNa3kTXd/DRLSUnZ07eqevwf8NnQ6btwwxcMhxzj9H/H3QansQTy3E8EJfX/xxhuraxqOrXjXeoTGaY1A7KoP7KD9lc0mfUTzS4pniLucGnhhjwwFD8fUg8pbnYq7FXYq7FXYqnnlTzXfeX74SRkyWMh/0q1rsw/mX+WRcz9Br56edjeJ+qDg6/Qx1EaO0/4JPcbC9tr60iu7WQSW8yh43HcH+PjndY8kZxEon0yeIyY5QkYy+qKpLbW820sSSD/LUN+vGWKMuYEmNqa6Zpy7raQg+IjUfwyA0uIfwx/0sVtXVAoooCgdABQZcBSF2FXYq7FXYq7FXYq7FXYq7FXYq7FXYq7FXYq7FXYq7FXYq7FXYq7FXYq7FXYq7FX/1fVOKuxV2KuxV2KuxV2KuxV2KuxV2KuxV2KuxV2KuxV2KuxV2KuxV2KuxV2KuxV2KsN/NUkeUnp3niB+85pu3f8AF/8AODt+w/8AGB/VLxvOLexdirsVdirsVdirsVdirsVdirsVdirsVdirsVdirsVdirsVaxV6H+UvmF4bqXRJmrDMDLaA/suN3Uf6w+LOi7A1dSOInY+qDz/buluIyjmPTN6oDUZ1by7sVdirsVdirsVdirsVdirsVdirsVdirsVdirsVdirsVdirsVdirsVdirsVdirsVdirsVf/1vVOKuxV2KuxV2KuxV2KuxV2KuxV2KuxV2KuxV2KuxV2KuxV2KuxV2KuxV2KuxV2KsN/Nb/lEm/4zxfrOabt3/F/84O37D/v/wDNk8bzi3sXYq7FXYqrWlnd3twltaQtPcyfYiQVJ9/l75PHilOXDEGUmGTJGA4pERizbTvyi1eaMPfXcVoT/upAZWHzPwr92bzF7P5CLlIQ/o/U6XL2/jBqETL+l9Ktd/k9fIhNpqUcr9kljKA+1VLZOfs9MD0zHya4e0ECfVE/5pYVq2i6npF0bXUYDBL1Q9VYeKsNmzSajTZMMqmOF3eDUQzRuB4kFlDc7FXYq7FXYqnOgeUdc108rKELbA0a7lJWIHwB6t/sczdJ2flz/SPT/Pl9LhavX4sG0j6v5kfqZbD+TkxSs2qqr+CRVFfmWGbePs6a3n/sXVH2hje0L/zkr1j8rPMFjE01o8eoRruY46pLTx4nZvkDmLqew82MXGsg/wBk5On7bwzNSvGf9gw0ghirAhlNGUihBHUEZpqrm7kF2BXYq7FUXpF89hqtnep9q3mR/o5Ub8Dl2ny+HkjL+bINOoxceOUf50X0UpBFQag7g+2ejvnreKuxV2KuxV2KuxV2KuxV2KuxV2KuxV2KuxV2KuxV2KuxV2KuxV2KuxV2KuxV2KuxV2Kv/9f1TirsVdirsVdirsVdirsVdirsVdirsVdirsVdirsVdirsVdirsVdirsVdirsVdirDfzW/5RJv+M8X6zmm7d/xf/ODt+w/7/8AzZPG84t7F2KuxV2Kvb/InlWDRNLjd0B1G5UPcyHcioqIweyrnc9l6EYMYv65fV/xLxPaeuOfJ/Qj6Y/8UyegzaOtdQYqlHmXy/aa5pstlcKORBa3l/ajkA+Fgf15iazSRz4zGX+a5Oj1UsGQSj/nf1XgU0MsE0kEq8JYWKSJ4Mpof1Z5/KJiSDzD30ZCQBHIrcil2KuxVO/J3l39Pa3HaPUWsY9W6I2PBewP+WfhzP7O0nj5RE/SPVNwe0dZ4GIyH1H0we729vBbwJBBGsUMY4pGoAAA8AM7yMBEUBs8NKRkbPNUoMkhogffgUvN/wA1PK0At/09apxlRgt8qjZlY0EhA/aU/aOc327oRw+LHn/G9F2HrTxeFLkfoeZZy70zsVdiq2SvpvTrQ0wFMeb6P0xuWm2jfzQxn70Gek4TcI/1Q+dZhU5f1iicta3Yq7FXYq7FXYq7FXYq7FXYq7FXYq7FXYq7FXYq7FXYq7FXYq7FXYq7FXYq7FXYq7FX/9D1TirsVdirsVdirsVdirsVdirsVdirsVdirsVdirsVdirsVdirsVdirsVdirsVdirDfzW/5RJv+M8X6zmm7d/xf/ODt+w/7/8AzZPG84t7F2KuxVGaNEsus2ETbq9zCCD4eoKjLtPG8sR/Sj97VqDWKR/oy+59Egb56NT543hV2KuxV4T5/tltvOGpIvSRllPzkQE5wfa2Ph1M/Opf6Z7jsqfFpoeVxY/mudg7FXYq9I/JuFS2qzU+IelH9FGbOm9nY/Wf6rzntDL6B/WenZ07zTsVdiqT+b4Vm8s6nGwqptpD/wACOX8Mw+0I8WCY/oly9BKs8D/SDwBfsj5Z58Hvi3ih2KrZf7p/kf1YJckx5vo3SP8Ajk2X/GCL/iAz0nT/AN3H+rH7nzvP/eS/rS+9F5a1OxV2KuxV2KuxV2KuxV2KuxV2KuxV2KuxV2KuxV2KuxV2KuxV2KuxV2KuxV2KuxV2Kv8A/9H1TirsVdirsVdirsVdirsVdirsVdirsVdirsVdirsVdirsVdirsVdirsVdirsVdirDfzW/5RJv+M8X6zmm7d/xf/ODt+w/7/8AzZPG84t7F2KuxVH+X/8AlINN/wCYqH/iYzI0n99D+uGjV/3Mv6hfQ+eivnzsVdirsVeI/mb/AMppef8AGOD/AJNjOH7a/wAZl7o/c9r2N/iw98vvYvmqdm7FXYq9M/Jr+61b/Xi/4i2dP7Ocp++LzXtDzh7pPSs6Z5x2KuxVLPM3/KPal/zCzf8AEDmLrf7mf9SX3OTov76H9eL57X7I+WeeDk9+W8Vdiq2X+6f5H9WCXJMeb6N0j/jk2X/GCL/iAz0nT/3cf6sfufO8/wDeS/rS+9F5a1OxV2KuxV2KuxV2KuxV2KuxV2KuxV2KuxV2KuxV2KuxV2KuxV2KuxV2KuxV2KuxV2Kv/9L1TirsVdirsVdirsVdirsVdirsVdirsVdirsVdirsVdirsVdirsVdirsVdirsVdirDfzW/5RJv+M8X6zmm7d/xf/ODt+w/7/8AzZPG84t7F2KuxVH+X/8AlINN/wCYqH/iYzI0n99D+uGjV/3Mv6hfQ+eivnzsVdirsVeI/mZ/yml5/wAY4P8Ak2M4ftr/ABmXuj/uXtexv8WHvkxfNU7N2KuxV6Z+TX91q3+vF/xFs6f2c5T98XmvaHnD3SelZ0zzjsVdiqWeZv8AlHtS/wCYWb/iBzF1v9zP+pL7nJ0X99D+vF89r9kfLPPBye/LeKuxVbL/AHT/ACP6sEuSY830bpH/ABybL/jBF/xAZ6Tp/wC7j/Vj9z53n/vJf1pfei8tanYq7FXYq7FXYq7FXYq7FXYq7FXYq7FXYq7FXYq7FXYq7FXYq7FXYq7FXYq7FXYq7FX/0/VOKuxV2KuxV2KuxV2KuxV2KuxV2KuxV2KuxV2KuxV2KuxV2KuxV2KuxV2KuxV2KsN/Nb/lEm/4zxfrOabt3/F/84O37D/v/wDNk8bzi3sXYq7FUf5f/wCUg03/AJiof+JjMjSf30P64aNX/cy/qF9D56K+fOxV2KuxV4j+Zn/KaXn/ABjg/wCTYzh+2v8AGZe6P+5e17G/xYe+TF81Ts3Yq7FXpn5Nf3Wrf68X/EWzp/ZzlP3xea9oecPdJ6VnTPOOxV2KpZ5m/wCUe1L/AJhZv+IHMXW/3M/6kvucnRf30P68Xz2v2R8s88HJ78t4q7FVsv8AdP8AI/qwS5JjzfRukf8AHJsv+MEX/EBnpOn/ALuP9WP3Pnef+8l/Wl96Ly1qdirsVdirsVdirsVdirsVdirsVdirsVdirsVdirsVdirsVdirsVdirsVdirsVdirsVf/U9U4q7FXYq7FXYq7FXYq7FXYq7FXYq7FXYq7FXYq7FXYq7FXYq7FXYq7FXYq7FXYqw381v+USb/jPF+s5pu3f8X/zg7fsP+//AM2TxvOLexdirsVR/l//AJSDTf8AmKh/4mMyNJ/fQ/rho1f9zL+oX0Pnor587FXYq7FXiP5mf8ppef8AGOD/AJNjOH7a/wAZl7o/7l7Xsb/Fh75MXzVOzdirsVemfk1/dat/rxf8RbOn9nOU/fF5r2h5w90npWdM847FXYqlnmb/AJR7Uv8AmFm/4gcxdb/cz/qS+5ydF/fQ/rxfPa/ZHyzzwcnvy3irsVWy/wB0/wAj+rBLkmPN9G6R/wAcmy/4wRf8QGek6f8Au4/1Y/c+d5/7yX9aX3ovLWp2KuxV2KuxV2KuxV2KuxV2KuxV2KuxV2KuxV2KuxV2KuxV2KuxV2KuxV2KuxV2KuxV/9X1TirsVdirsVdirsVdirsVdirsVdirsVdirsVdirsVdirsVdirsVdirsVdirsVdirDfzW/5RJv+M8X6zmm7d/xf/ODt+w/7/8AzZPG84t7F2KuxVH+X/8AlINN/wCYqH/iYzI0n99D+uGjV/3Mv6hfQ+eivnzsVdirsVeI/mZ/yml5/wAY4P8Ak2M4ftr/ABmXuj/uXtexv8WHvkxfNU7N2KuxV6Z+TX91q3+vF/xFs6f2c5T98XmvaHnD3SelZ0zzjsVdiqWeZv8AlHtS/wCYWb/iBzF1v9zP+pL7nJ0X99D+vF89r9kfLPPBye/LeKuxVbL/AHT/ACP6sEuSY830bpH/ABybL/jBF/xAZ6Tp/wC7j/Vj9z53n/vJf1pfei8tanYq7FXYq7FXYq7FXYq7FXYq7FXYq7FXYq7FXYq7FXYq7FXYq7FXYq7FXYq7FXYq7FX/1vVOKuxV2KuxV2KuxV2KuxV2KuxV2KuxV2KuxV2KuxV2KuxV2KuxV2KuxV2KuxV2KsN/Nb/lEm/4zxfrOabt3/F/86Lt+w/7/wDzZPG84t7F2KuxVH+X/wDjv6b/AMxUP/ExmRpP76H9cNGr/uZf1C+h89FfPnYq7FXYq8R/Mz/lNLz/AIxwf8mxnD9tf4zL3R/3L2vY3+LD3yYvmqdm7FXYq9M/Jr+51b/Xi/4i2dP7Ocp++LzXtDzh7pPSs6Z5x2KuxVLPM/8Ayjupf8ws3/EDmLrf7mf9STk6P++h/Xi+e1+yPlnng5PoB5t4odiqyX+7f5H9WCXJMeb6O0j/AI5Vl/xgi/4gM9Jwf3cf6sfufO8/95L+tL70XlrU7FXYq7FXYq7FXYq7FXYq7FXYq7FXYq7FXYq7FXYq7FXYq7FXYq7FXYq7FXYq7FXYq//X9U4q7FXYq7FXYq7FXYq7FXYq7FXYq7FXYq7FXYq7FXYq7FXYq7FXYq7FXYq7FXYqxD80oy3lGYjcJLEx+XKn8c0/bgvTn3xdt2JKtQPcXjGcU9k7FXYqmXlhDJ5k0pANzdR0+hq/wzK0UbzwH9MOPrJVhn/UL6Ez0N8/dirsVdirxP8ANCNl843LHo8UJHyCU/hnEdtitSfOMXs+xTemH9aTFc1LtXYq7FXp/wCTS/6Jqr9jNEo+hCf451Ps6PTM+YeZ9oD6oD+iXo+dI867FXYql3mJS+g6ig6m1mp/yLOY+rjeGY/oy+5v0hrND+vF88r9kfLPOhyfQi3ih2KrZf7tgOtDQe+ApjzfR+mKU061Q9VhjB+YUZ6VhFQA8g+dZTcyfMonLGt2KuxV2KuxV2KuxV2KuxV2KuxV2KuxV2KuxV2KuxV2KuxV2KuxV2KuxV2KuxV2KuxV/9D1TirsVdirsVdirsVdirsVdirsVdirsVdirsVdirsVdirsVdirsVdirsVdirsVdiqUebNLfU/Ll/ZRisssRMY8XQh1H3rmJr8Hi4ZQHMhytDmGLNGXcf8AdPn/AHrvt4g7UI2pnnr35pvFDsVZT+WulyXvmu3loTDYq08jeBoVT7yc2vYuAz1APTH6nV9sZxDAR/FP0vbc7h4t2KuxV2KvK/zf0yRL6z1NR+6kQ28jdg6nkv8AwSsf+BzlPaDARKOQcj6ZPUdgZgYyxnmPVF57nOvQOxVr8MbUB7N+V2lyWXlhZpBxkvZGnAPXh9lKj5Cudr2JpzjwWeczxvG9tZxkzUOUPSzHNw6l2KuxVTnjSWN4n+xIpRvkwpkZR4gR3pjLhIPc+ddRsJrDULmxmFJbeRo2r7HY/wCyG+ec5sRxzMT/AAl9Dw5RkgJD+IIfKmx2Ko7Q9Nl1PWLOxiG80qhj1ogNWJ+QGX6XCcuWMB/EWjU5hixymf4Q+h0AVQo6DYZ6KA+fW3hV2KuxV2KuxV2KuxV2KuxV2KuxV2KuxV2KuxV2KuxV2KuxV2KuxV2KuxV2KuxV2KuxV//R9U4q7FXYq7FXYq7FXYq7FXYq7FXYq7FXYq7FXYq7FXYq7FXYq7FXYq7FXYq7FXYq49MVee+cfyzN9cSaho3CK5lq09q3wo7Hqyn9hj3/AGc57tDsXjPHi9Mj9UHf9n9teGBDJ6oj6ZvP7nyt5ktZOE2l3KsNgVjLg/IpyGc7PQ54c4SeghrcE+U4pjo/5e+aNSlUNamygr8U9x8NB/kp9pjmTp+yM+Q8vDj/ADp/8S42o7VwYxz45f0XrHlnyzYaBYC1tQXkc8ri4b7cj+J9v5VzrtFooaeHDHn/ADv5zyer1k88+KSc5mOK7FXYq7FUDq2k2WrWMtjex+pbyihHQgjoynsw7ZRqNPHNAwmNi24M8sUxOJ3DyXXvyy8w6fKWsY/0jaVqrR0EoFejoep/ylzktV2Jlxn0fvI/7J6zS9s4pj1fu5/7FIo/LfmKST000u6MngYmH4kAfjmvGjznbgnfuc+WrwjczhXvZj5X/K26eeO610CKBCGFkp5M/ekjDYL/AJIzdaHsORIlm+n+Z/O/rum1vbcQDHD9X8/+b/UepRIiRqiqFVRRVAoAB0AGdTEADZ5kknmuwodirsVdscVYj508h2uvn61bsLbU0XiJSPgkUdFkp+D5qO0uy45/VH05P91/Xdr2f2pLB6T6oH/Y/wBV5hqHk7zRYOUn02ZgOkkI9VD8ilc5bL2bngaMJf5vqemxdo4MgsSH+d6F2neSfNN/KqRafLEh6zTj0kHz5b/cMOHs3PkO0CP6/pXN2jgxjeQP9T1vUvJvkez8vxtK7C51KVaSXFKBR/LGD0Hv+1nWdn9mR04s+vJ/OeW7Q7SlqDX04/5v/FMoXNm61vFXYq7FXYq7FXYq7FXYq7FXYq7FXYq7FXYq7FXYq7FXYq7FXYq7FXYq7FXYq7FXYq7FX//S9U4q7FXYq7FXYq7FXYq7FXYq7FXYq7FXYq7FXYq7FXYq7FXYq7FXYq7FXYq7FXYq7FVL63a83T1k5xgl15CqgdSRXbFVtvf2NzX6tcRz8ftem6vT/gScVd+kLD6x9W+sxfWP98815/8AA1riqrJLFGheRwiDqzEKB9JxV0c0UiB43V0PRlIIP0jFVourYzeiJU9bvFyHPx+z1xVUxVTNzbrKITKgmIqIyw5EeNOuKqcGo6fPK0UFzFLKv2o0dWYfMA1xVuXULCGYQy3MUczfZjd1Vj9BNcVV6itMVUri7tbaP1biZIYx+3IwQfeaYqppqenPB66XULQVp6okUpXw5VpiquZYwnqFgIwORcnanjXFVgu7RhHxmQ+qSIqMPiI6hd98VYdrHmrWbX8xNN0KB4xp9zGjTIyVerc60au32MVZjJdWsTBJZkjdvsq7AE9tgTiqpyWla7f0xVCw6vpU85t4byCWcdYkkRm+4GuKopmUKSSABuSegxVglr5z1GX8xrjRmuYP0NGhKGi1J9JWH7yv8zYqzwGoxV2KuxV2KuxV2KuxV2KuxV2KuxV2KuxV2KuxV2KuxV2KuxV2KuxV2KuxV2KuxV2KuxV2Kv8A/9P1TirsVdirsVdirsVdirsVdirsVdirsVdirsVdirsVdirsVdirsVdirsVdirsVdirsVeKN5eHmD80dZsGleC2Z3a8ki2do0VaJ8mbFVDzb5al8m+Y7D9AXU0bXqcYZGI5q7MIyrFQAynl3XFUw85/llY6F5e/S1rdzyX9u6NcyyEHmzEAupADKwY8h8TYqzvSoj5o/L+3jvqO+o2XCVm3q5FAx9+Q5Yqxr8qNbTT9B1bTtQPpnRXeZweojNeQ/2Lo2Kt/lVpsupanqvm+9QfWLuVorYkCqgmr0+XwR/wCxxV6WBirx/wA76VLq35p29hDKbeS4hijadPtrHxdpCKU/Y5DFUH578k2vk/8AR+qaNcTK5lKAsRzWRVLhlZQvXjupxVMdW/LKB/Ks+v3d5Pca40H12d3IKMePMpSnIbbV5Yqy38stUuL7ybby3UjSPbtJCZGNWKxmq1PeinFWE6PpFz+YvmC+1DU7p49LtGCwQIRsrE8FStVX4RydqfFiqV/mP5Ii8sQp9SneXS74nnDJQkTRKSC1AFb4WPFuPLAr0/XwqflxcLQcRpyrTtT0wMKsR/Kjydb3NraeYbqeQtaSyJp9qpAjQCqs29ftNU7Yq35u1K00781rO/uyRb2loruVFSaLMQAPcmmKonyPo0/mfW5fOetKrqHKaZbGjKnA0rT/AIr6L/l/Hiqn+bfmO4S+s/L8dybSzmUS6jcLUn02biBRd2UAFuI+1gtWL6jaflcumH9Falcx6pAvKCYq1HkUeAC8OXYqfhwq9G/LrWp/MnlGWLUJDLNGXs55hTk6lBRj/lcH3xVgel+R9Em/MK68uEy/o6zXnFRl9SqKjip40+038uKvblACgDoNh9GKt4q7FXYq7FXYq7FXYq7FXYq7FXYq7FXYq7FXYq7FXYq7FXYq7FXYq7FXYq7FXYq7FXYq/wD/1PVOKuxV2KuxV2KuxV2KuxV2KuxV2KuxV2KuxV2KuxV2KuxV2KuxV2KuxV2KuxV2KuxV5t5OtrlfzS8yzyQSJCyv6croyo1XT7LEcT07HFVn5nW13P5q8uCKCWWNHBkdI2dV/er9ogEDYd8VZD+aCTSeS76OGN5ZGMYEcal2Pxg7BQTiqL8gRSw+TNIikRo5Et1Do6lWBqeqmhGKvMfzE02/0/zjc22nEj/EMaD0lO7mRwGUj/jIgfFXr2gaTDpGkWmmw/Ytowhb+ZurN/smqcVTDFXnFzbXL/nLBP6Ev1dIAPX4N6dfRYU5049/HFV/5z29zPo2nJBBJO31okrEjSEfu2FSFBoN8VZN5gST/Bd8iIzP9QZVRQSxPp0oFG5OKpT+U9tLD5OSOeJ4naaUmORWRqEgdGAOKsSjHmX8vNduzb2L3+iXjVQorEFQSUHJQ3pyICU+JeLYqk/nXV/NPmu3S9fSp4NMtyYreJI5HJkkXc148nNBTZeC4q9S80xTH8vruJEdpTZIojVSWrRRQKBXFVD8rIJYPJdnHNE8MnOUmORWRhWQkVDAHFUi1bT5Lr837X1rV5bFrbhK7RsYiDDKCC9OH7XjiqF0r9KeQ/NcmnNFPc+W79uccqRvL6VTQMSgNCn2JP5k+LFUy/Mryzqc19Y+ZNJgF3cWIUXFqV580U8lPA/b6srLiqRz+dbrUYFstF8opFqjkAu9urqh7niY1H/Bt8OKvSfLNhe2OkQx6gIBfsOVybaNYo+R7BUFDxHw8sVYX5etrn/lbur3DQSrAY5OEzRsEJpENnI4nocVelDFXYq7FXYq7FXYq7FXYq7FXYq7FXYq7FXYq7FXYq7FXYq7FXYq7FXYq7FXYq7FXYq7FXYq/wD/1fVOKuxV2KuxV2KuxV2KuxV2KuxV2KuxV2KuxV2KuxV2KuxV2KuxV2KuxV2KuxV2KuxV2KupirqDFXbYqxCLyTdzeen8y6hdRzQxrSytVVgY6DihJJptV2/1sVZfirsVdirqYq6mKuoMVdTFXYq6gxV1BirqClO2KupirqDFXUxV1BirsVdTFXYq7FXYq7FXYq7FXYq7FXYq7FXYq7FXYq7FXYq7FXYq7FXYq7FXYq7FXYq7FXYq7FXYq//W9U4q7FXYq7FXYq7FXYq7FXYq7FXYq7FXYq7FXYq7FXYq7FXYq7FXYq7FXYq7FXYq7FXYq7FXYq7FXYq7FXYq7FXYq7FXYq7FXYq7FXYq7FXYq7FXYq7FXYq7FXYq7FXYq7FXYq7FXYq7FXYq7FXYq7FXYq7FXYq7FXYq7FXYq7FXYq7FXYq7FXYq7FXYq//X9U4q7FXYq7FXYq7FXYq7FXYq7FXYq7FXYq7FXYq7FXYq7FXYq7FXYq7FXYq7FXYq7FXYq7FXYq7FXYq7FXYq7FXYq7FXYq7FXYq7FXYq7FXYq7FXYq7FXYq7FXYq7FXYq7FXYq7FXYq7FXYq7FXYq7FXYq7FXYq7FXYq7FXYq7FXYq7FXYq7FXYq7FXYq//Q9U4q7FXYq7FXYq7FXYq7FXYq7FXYq7FXYq7FXYq7FXYq7FXYq7FXYq7FXYq7FXYq7FXYq7FXYq7FXYq7FXYq7FXYq7FXYq7FXYq7FXYq7FXYq7FXYq7FXYq7FXYq7FXYq7FXYq7FXYq7FXYq7FXYq7FXYq7FXYq7FXYq7FXYq7FXYq7FXYq7FXYq7FXYq//R9U4q7FXYq7FXYq7FXYq7FXYq7FXYq7FXYq7FXYq7FXYq7FXYq7FXYq7FXYq7FXYq7FXYq7FXYq7FXYq7FXYq7FXYq7FXYq7FXYq7FXYq7FXYq7FXYq7FXYq7FXYq7FXYq7FXYq7FXYq7FXYq7FXYq7FXYq7FXYq7FXYq7FXYq7FXYq7FXYq7FXYq7FXYq//S9U4q7FXYq7FXYq7FXYq7FXYq7FXYq7FXYq7FXYq7FXYq7FXYq7FXYq7FXYq7FXYq7FXYq7FXYq7FXYq7FXYq7FXYq7FXYq7FXYq7FXYq7FXYq7FXYq7FXYq7FXYq7FXYq7FXYq7FXYq7FXYq7FXYq7FXYq7FXYq7FXYq7FXYq7FXYq7FXYq7FXYq7FXYq//T9U4q7FXYq7FXYq7FXYq7FXYq7FXYq7FXYq7FXYq7FXYq7FXYq7FXYq7FXYq7FXYq7FXYq7FXYq7FXYq7FXYq7FXYq7FXYq7FXYq7FXYq7FXYq7FXYq7FXYq7FXYq7FXYq7FXYq7FXYq7FXYq7FXYq7FXYq7FXYq7FXYq7FXYq7FXYq7FXYq7FXYq7FXYq//U9U4q7FXYq7FXYq7FXYq7FXYq7FXYq7FXYq7FXYq7FXYq7FXYq7FXYq7FXYq7FXYq7FXYq7FXYq7FXYq7FXYq7FXYq7FXYq7FXYq7FXYq7FXYq7FXYq7FXYq7FXYq7FXYq7FXYq7FXYq7FXYq7FXYq7FXYq7FXYq7FXYq7FXYq7FXYq7FXYq7FXYq7FXYq//V9U4q7FXYq7FXYq7FXYq7FXYq7FXYq7FXYq7FXYq7FXYq7FXYq7FXYq7FXYq7FXYq7FXYq7FXYq7FXYq7FXYq7FXYq7FXYq7FXYq7FXYq7FXYq7FXYq7FXYq7FXYq7FXYq7FXYq7FXYq7FXYq7FUHe6xpdjIsd3cxwOw5KrmhIrSuQlljHmWcccjyC2LXdIl9L0rpJPWk9KPiSauBy47e2AZonkVOOQ6I7LGClLdW8UsUMkipLOSIUJ3YqKmmAyANJESVC71jTLST0ri4WOSqjhuT8ZouwB65CWWMeZZRxyPIIzLGDsVUre6t7lWeCRZFVijFTWjL1GCMgeSTEjmq4UOxV2KuxV2KuxV2KuxV2Kv/1vVOKuxV2KuxV2KuxV2KuxV2KuxV2KuxV2KuxV2KuxV2KuxV2KuxV2KuxV2KuxV2KuxV2KuxV2KuxV2KuxV2KuxV2KuxV2KuxV2KuxV2KuxV2KuxV2KuxV2KuxV2KuxV2KuxV2KuxV2KuxV2KuxVI/OVvA3l6+laNWlSKiyEAsPiHQ5j6oDgJbsBPGEu1+zX1tAhtSLVpZj+8jVahjGBypSlcqzR3gBtu2YpfUTupWur38KWa3F4SianLbTTSELyiQGnM9OuRjkkKs/x8LKWMG6H8KHlvLm70u61QymdtL1MywMDX9yOIKrT9niciZGUTL+ZP/YpEQJCP86Ky4uXnju9Ziba61GCCByAf3MW21fE4JSu5jrIJAqo90SiLPVdeudcJjkdokvTDJCXhWIQg0I4EiTmPtVyUckzP/O8vpYyhER/zVmm6hrLHT7yS/kkSe+a1a3IXjwHLvSpOMJz2N/xcKZxjuK/h4ky8n3lnHbXUDzxpM15NxiZ1DGrbUUmuW6aQAIv+IteeJsHyS7TtY1R3066+vGWe+mmjmsm4+mgUNxooHJaUG+VQyy2N7yv0s5Y47ivp6qemaprcy/XUnuZkitriW69RQIBKingsZAHMcu2DHkmd7PI/wBVlOERttzCO0TU7pL+zEuoG7hurJrm6DlCImWh24gcRueuWYsh4hZ4rjxNeSAo7VRRF9ftea7BbRakbSwa0+sRyxMg9RzJx+0wNRQZKc+KYAPDHh4mMY1G6s2gNV1fUUm1O4S/aGSwniitrMcOLqxUEspHJq1OV5Mkrkb+k/S2QgKAr6lLU7/Wq6xcw6hJClhcRrFCApUiQqN6joK9MGSc/UQfpKYRj6RX1BO9Blv49X1Owubt7tLdYHjeQAEGRSW6AbZfhMhKUSeKqacoHCCBSfZktDsVf//X9U4q7FXYq7FXYq7FXYq7FXYq7FXYq7FXYq7FXYq7FXYq7FXYq7FXYq7FXYq7FXYq7FXYq7FXYq7FXYq7FXYq7FXYq7FXYq7FXYq7FXYq7FXYq7FXYq7FXYq7FXYq7FXYq7FXYq7FXYq7FXYq7FVk8EM8TQzxrLE4o8bgMpHuDgIBFFINclslpbSNE0kSO0BrCSoJQ0pVfDExBUSKlJpWmSxNDJaxPEz+qyFFKmQ/tEU+175E44kVSROQ6r00+wjhkgS3jSGWvqRqihWqKGoAocIhGqpeI3dtDTdPFulsLaIW8bB44eC8FYGtQKUrXBwRqq2XjN3a06TphuxeG1iN0DUTcBzr418cfDjd1uvHKqvZcmnaeioqW0SrG5ljUIoCuf2hts3vh4I9y8Z71JdE0ZZxOtjAJw3MSCNeXKta1p1yPhQu6CfElVWvj0rTorl7qK2ijunrWYIOVT1NcIxxBsDdBmSKvZKdO8qG01OO++sRgIHDwwQ+ir8xT4/jYbf6uUw0/DK7+xtlmuNUmtvpGl2/qehaRR+sCJeKKOQPUHbp7ZcMcRyDWZyPMtTaNpM0cUctnC8cApCpRaKPBdthgOKJ6KMkh1XS6Vpst0t1JaxPcpTjMyAsKdN/bCccSbrdAnICr2XNp1g4lVraNhOwacFFIdl3Bbb4qUw8Ee7mvGe9US3gSZ5kjVZpQBJIAAzBdlqe9MIiLtFnkqYUOxV//9D1TirsVdirsVdirsVdirsVdirsVdirsVdirsVdirsVdirsVdirsVdirsVdirsVdirsVdirsVdirsVdirsVdirsVdirsVdirsVdirsVdirsVdirsVdirsVdirsVdirsVdirsVdirsVdirsVdirsVdirsVdirsVdirsVdirsVdirsVdirsVdirsVdirsVdir/9k=;" vertex="1" parent="1">
          <mxGeometry x="80" y="-170" width="150.38" height="100" as="geometry" />
        </mxCell>
        <mxCell id="fRcpiVobLPPdyw1uBc6f-18" value="&lt;font style=&quot;font-size: 16px;&quot;&gt;Phạm Huy Hoàng&lt;/font&gt;" style="text;html=1;strokeColor=none;fillColor=none;align=center;verticalAlign=middle;whiteSpace=wrap;rounded=0;" vertex="1" parent="1">
          <mxGeometry x="80" y="875" width="145" height="30" as="geometry" />
        </mxCell>
        <mxCell id="fRcpiVobLPPdyw1uBc6f-19" value="&lt;span style=&quot;font-size: 16px;&quot;&gt;0705709110&lt;/span&gt;" style="text;html=1;strokeColor=none;fillColor=none;align=center;verticalAlign=middle;whiteSpace=wrap;rounded=0;" vertex="1" parent="1">
          <mxGeometry x="452" y="875" width="110" height="30" as="geometry" />
        </mxCell>
        <mxCell id="fRcpiVobLPPdyw1uBc6f-23" value="" style="rounded=0;whiteSpace=wrap;html=1;fillColor=#858585;" vertex="1" parent="1">
          <mxGeometry x="520" y="-50" width="320" height="180" as="geometry" />
        </mxCell>
        <mxCell id="fRcpiVobLPPdyw1uBc6f-24" value="&lt;h1&gt;Intro&lt;/h1&gt;&lt;p&gt;Lorem ipsum dolor sit amet, consectetur adipisicing elit, sed do eiusmod tempor incididunt ut labore et dolore magna aliqua.&lt;/p&gt;" style="text;html=1;strokeColor=none;fillColor=none;spacing=5;spacingTop=-20;whiteSpace=wrap;overflow=hidden;rounded=0;" vertex="1" parent="1">
          <mxGeometry x="80" y="-40" width="190" height="120" as="geometry" />
        </mxCell>
        <mxCell id="fRcpiVobLPPdyw1uBc6f-26" value="" style="rounded=0;whiteSpace=wrap;html=1;fillColor=#969696;" vertex="1" parent="1">
          <mxGeometry x="80" y="740" width="880" height="60" as="geometry" />
        </mxCell>
        <mxCell id="fRcpiVobLPPdyw1uBc6f-27" value="Đồ gia dụng" style="text;html=1;strokeColor=none;fillColor=none;align=center;verticalAlign=middle;whiteSpace=wrap;rounded=0;fontSize=16;" vertex="1" parent="1">
          <mxGeometry x="810" y="175" width="120" height="20" as="geometry" />
        </mxCell>
        <mxCell id="fRcpiVobLPPdyw1uBc6f-28" value="Email : hoangphph35249@fpt.edu.vn" style="text;html=1;strokeColor=none;fillColor=none;align=center;verticalAlign=middle;whiteSpace=wrap;rounded=0;fontSize=16;" vertex="1" parent="1">
          <mxGeometry x="685" y="875" width="245" height="30" as="geometry" />
        </mxCell>
        <mxCell id="fRcpiVobLPPdyw1uBc6f-36" value="" style="rounded=0;whiteSpace=wrap;html=1;fillColor=#858585;" vertex="1" parent="1">
          <mxGeometry x="75" y="480" width="200" height="200" as="geometry" />
        </mxCell>
      </root>
    </mxGraphModel>
  </diagram>
</mxfile>
